<?xml version="1.0" encoding="UTF-8" standalone="no"?>
<!-- Created with Inkscape (http://www.inkscape.org/) -->

<svg
   width="12.000301mm"
   height="12.000301mm"
   viewBox="0 0 12.000301 12.000301"
   version="1.1"
   id="svg1"
   xmlns:inkscape="http://www.inkscape.org/namespaces/inkscape"
   xmlns:sodipodi="http://sodipodi.sourceforge.net/DTD/sodipodi-0.dtd"
   xmlns="http://www.w3.org/2000/svg"
   xmlns:svg="http://www.w3.org/2000/svg">
  <sodipodi:namedview
     id="namedview1"
     pagecolor="#505050"
     bordercolor="#eeeeee"
     borderopacity="1"
     inkscape:showpageshadow="0"
     inkscape:pageopacity="0"
     inkscape:pagecheckerboard="0"
     inkscape:deskcolor="#505050"
     inkscape:document-units="mm" />
  <defs
     id="defs1" />
  <g
     inkscape:label="Camada 1"
     inkscape:groupmode="layer"
     id="layer1"
     transform="translate(-164.77619,-147.74343)">
    <path
       id="path36"
       style="fill:#ffffff;stroke-width:0.361069"
       d="m 165.53273,147.74344 c -0.41905,0 -0.75655,0.3375 -0.75655,0.75654 v 10.48721 c 0,0.41905 0.3375,0.75655 0.75655,0.75655 h 10.48721 c 0.41904,0 0.75654,-0.3375 0.75654,-0.75655 v -10.48721 c 0,-0.41904 -0.3375,-0.75654 -0.75654,-0.75654 z m 1.80712,0.99994 h 1.76372 v 1.12344 h -1.5534 c -0.0891,0 -0.1633,0.031 -0.22272,0.093 -0.0594,0.062 -0.0894,0.13953 -0.0894,0.23254 v 0.5116 h 1.66191 v 1.09657 h -1.66191 v 1.59474 h -1.37511 v -3.22978 c 0,-0.27024 0.0639,-0.51133 0.1912,-0.72399 0.12734,-0.21707 0.30121,-0.38755 0.52193,-0.51159 0.22497,-0.12405 0.47939,-0.18655 0.76378,-0.18655 z m 2.09496,0 h 2.76934 v 1.12344 h -0.70021 v 2.40554 h 0.70021 v 1.12293 h -2.76934 v -1.12293 h 0.69402 v -2.40554 h -0.69402 z m 5.66632,0 h 0.6749 v 1.12344 h -0.62994 c -0.19525,0 -0.36717,0.031 -0.51573,0.093 -0.14856,0.062 -0.27186,0.14817 -0.36949,0.2589 -0.0976,0.10632 -0.17179,0.23259 -0.22272,0.37879 -0.0467,0.14619 -0.0703,0.30346 -0.0703,0.4718 0,0.16835 0.0236,0.32561 0.0703,0.47181 0.0509,0.14619 0.12509,0.27475 0.22272,0.3855 0.0976,0.10633 0.22093,0.19068 0.36949,0.2527 0.14856,0.062 0.32048,0.093 0.51573,0.093 h 0.62994 v 1.12293 h -0.6749 c -0.39899,0 -0.75508,-0.0556 -1.06918,-0.1664 -0.31411,-0.11075 -0.57986,-0.26979 -0.79634,-0.47801 -0.21647,-0.20822 -0.382,-0.45441 -0.49661,-0.73794 -0.1146,-0.28353 -0.17156,-0.59806 -0.17156,-0.94361 0,-0.34555 0.057,-0.66008 0.17156,-0.94361 0.11461,-0.28353 0.28014,-0.52921 0.49661,-0.73742 0.22073,-0.20822 0.48648,-0.36777 0.79634,-0.47853 0.3141,-0.11075 0.67019,-0.16639 1.06918,-0.16639 z m -8.75708,5.21621 c 0.0962,0 0.18064,0.023 0.25321,0.0687 0.0726,0.0441 0.12899,0.10495 0.1695,0.18242 0.0405,0.0775 0.0605,0.1646 0.0605,0.26148 v 0.91933 c 0,0.0493 0.0111,0.0935 0.0331,0.13229 0.0219,0.037 0.0509,0.067 0.0863,0.0899 0.0371,0.0229 0.0767,0.0341 0.11886,0.0341 0.0422,0 0.0808,-0.0112 0.11627,-0.0341 0.0354,-0.0229 0.0635,-0.0529 0.0837,-0.0899 0.0219,-0.0387 0.0325,-0.083 0.0325,-0.13229 v -0.91933 c 0,-0.0969 0.0205,-0.18398 0.061,-0.26148 0.0422,-0.0775 0.0995,-0.13838 0.17208,-0.18242 0.0726,-0.0458 0.15702,-0.0687 0.25322,-0.0687 0.0945,0 0.17806,0.023 0.25063,0.0687 0.0726,0.0441 0.12899,0.10495 0.1695,0.18242 0.0405,0.0775 0.061,0.1646 0.061,0.26148 v 1.36891 h -0.24288 v -1.40301 c 0,-0.0475 -0.0111,-0.0909 -0.0331,-0.12971 -0.0202,-0.0388 -0.0492,-0.0696 -0.0863,-0.0925 -0.0354,-0.0229 -0.075,-0.0341 -0.11885,-0.0341 -0.0456,0 -0.0869,0.0112 -0.12403,0.0341 -0.0354,0.0229 -0.0644,0.0537 -0.0863,0.0925 -0.0219,0.0387 -0.0326,0.0822 -0.0326,0.12971 v 0.91932 c 0,0.10216 -0.0214,0.19173 -0.0636,0.26924 -0.0405,0.0757 -0.0969,0.1358 -0.1695,0.17983 -0.0709,0.0441 -0.15175,0.0661 -0.24288,0.0661 -0.0911,0 -0.1729,-0.0221 -0.24546,-0.0661 -0.0726,-0.0441 -0.13041,-0.10412 -0.1726,-0.17983 -0.0405,-0.0775 -0.0605,-0.16708 -0.0605,-0.26924 v -0.91932 c 0,-0.0475 -0.0111,-0.0909 -0.0331,-0.12971 -0.0219,-0.0388 -0.0512,-0.0696 -0.0884,-0.0925 -0.0371,-0.0229 -0.0776,-0.0341 -0.12143,-0.0341 -0.0439,0 -0.0843,0.0112 -0.12144,0.0341 -0.0354,0.0229 -0.0644,0.0537 -0.0863,0.0925 -0.0203,0.0387 -0.0305,0.0822 -0.0305,0.12971 v 1.40301 h -0.24288 v -1.36891 c 0,-0.0969 0.0199,-0.18398 0.0605,-0.26148 0.0405,-0.0775 0.0974,-0.13838 0.17001,-0.18242 0.0726,-0.0458 0.15613,-0.0687 0.25064,-0.0687 z m 2.98173,0 c 0.0624,0 0.11759,0.0167 0.16484,0.0501 0.0489,0.0317 0.0858,0.0839 0.11111,0.15606 l 0.60513,1.67535 h -0.26562 l -0.15451,-0.44648 h -0.92656 l -0.1571,0.44648 h -0.25528 l 0.60203,-1.67276 c 0.027,-0.0722 0.0644,-0.12518 0.11162,-0.15865 0.0473,-0.0334 0.1019,-0.0501 0.16434,-0.0501 z m 1.50636,0 c 0.0962,0 0.18065,0.023 0.25322,0.0687 0.0726,0.0441 0.12899,0.10495 0.1695,0.18242 0.0405,0.0775 0.061,0.1646 0.061,0.26148 v 0.92243 c 0,0.0475 0.0106,0.0904 0.0326,0.12919 0.0219,0.0387 0.0509,0.0696 0.0863,0.0925 0.0371,0.0229 0.0767,0.0341 0.11886,0.0341 0.0422,0 0.0814,-0.0112 0.11679,-0.0341 0.0354,-0.0229 0.0629,-0.0538 0.0832,-0.0925 0.0219,-0.0387 0.0331,-0.0816 0.0331,-0.12919 v -1.40302 h 0.24288 v 1.3684 c 0,0.0969 -0.02,0.18397 -0.0605,0.26148 -0.0405,0.0775 -0.0965,0.1392 -0.16743,0.185 -0.0709,0.0441 -0.15353,0.0661 -0.24804,0.0661 -0.0945,0 -0.17806,-0.0221 -0.25063,-0.0661 -0.0709,-0.0458 -0.12642,-0.10747 -0.16692,-0.185 -0.0405,-0.0775 -0.061,-0.16461 -0.061,-0.26148 v -0.92191 c 0,-0.0475 -0.0106,-0.0909 -0.0325,-0.12971 -0.0219,-0.0388 -0.0518,-0.0696 -0.0889,-0.0925 -0.0371,-0.0229 -0.0776,-0.0341 -0.12144,-0.0341 -0.0439,0 -0.0843,0.0112 -0.12144,0.0341 -0.0354,0.0229 -0.0644,0.0537 -0.0863,0.0925 -0.0202,0.0387 -0.03,0.0822 -0.03,0.12971 v 1.40301 h -0.24339 v -1.36891 c 0,-0.0969 0.0205,-0.18398 0.061,-0.26148 0.0405,-0.0775 0.0969,-0.13838 0.1695,-0.18242 0.0726,-0.0458 0.15612,-0.0687 0.25063,-0.0687 z m 4.06332,0 c 0.0624,0 0.11708,0.0172 0.16433,0.0507 0.0489,0.0317 0.0863,0.0834 0.11162,0.15554 l 0.60462,1.67535 h -0.26562 l -0.15451,-0.44648 h -0.92656 l -0.15658,0.44648 h -0.2558 l 0.60255,-1.67276 c 0.027,-0.0722 0.0639,-0.12466 0.1111,-0.15813 0.0473,-0.0334 0.10241,-0.0507 0.16485,-0.0507 z m -2.49649,0.032 h 0.2434 v 0.7953 h 0.93379 v -0.7953 h 0.2434 v 1.8495 h -0.2434 v -0.82992 h -0.93379 v 0.82992 h -0.2434 z m -3.07319,0.19017 c -0.0169,0 -0.0302,0.006 -0.0403,0.0186 -0.0101,0.0123 -0.0186,0.0298 -0.0253,0.0527 l -0.32401,0.91674 h 0.77721 l -0.31626,-0.91674 c -0.008,-0.0229 -0.0178,-0.0404 -0.0279,-0.0527 -0.0101,-0.0123 -0.0248,-0.0186 -0.0434,-0.0186 z m 5.56968,0 c -0.0169,0 -0.0307,0.006 -0.0408,0.0186 -0.0101,0.0123 -0.0186,0.0298 -0.0253,0.0527 l -0.32402,0.91674 h 0.77722 l -0.31626,-0.91674 c -0.008,-0.0229 -0.0178,-0.0404 -0.0279,-0.0527 -0.0101,-0.0123 -0.0243,-0.0186 -0.0429,-0.0186 z m -5.57175,2.25516 h 0.46147 v 2.26912 h -0.46147 z m 3.48764,0.0935 h 0.84543 v 1.73116 h 0.34881 v 0.44442 h -1.22421 v -0.44442 h 0.38705 v -1.28675 h -0.35708 z m 1.45314,0 h 1.25987 v 0.44441 h -0.7922 v 0.31678 h 0.23255 c 0.13105,0 0.24815,0.0314 0.3514,0.0935 0.10523,0.0622 0.18744,0.14701 0.24701,0.25476 0.0616,0.10569 0.0925,0.22394 0.0925,0.3545 0,0.12849 -0.0309,0.24776 -0.0925,0.3576 -0.0596,0.10776 -0.14178,0.19362 -0.24701,0.25787 -0.10325,0.0642 -0.22035,0.0961 -0.3514,0.0961 h -0.76843 v -0.44442 h 0.71158 c 0.0496,0 0.0941,-0.0123 0.13385,-0.0372 0.0417,-0.0249 0.0738,-0.0577 0.0956,-0.0992 0.0238,-0.0415 0.0357,-0.0872 0.0357,-0.13694 0,-0.0497 -0.0118,-0.0944 -0.0357,-0.13384 -0.0218,-0.0415 -0.0539,-0.0744 -0.0956,-0.0992 -0.0397,-0.0249 -0.0842,-0.0377 -0.13385,-0.0377 h -0.64337 z m -6.09368,0.54363 c 0.17076,0 0.31598,0.0375 0.43511,0.11214 0.12112,0.0725 0.21345,0.17279 0.27699,0.30127 0.0655,0.12642 0.0982,0.26884 0.0982,0.42634 v 0.7922 h -0.45268 v -0.25477 h -0.0119 c -0.0278,0.056 -0.0638,0.10689 -0.10748,0.15245 -0.0437,0.0435 -0.0972,0.0774 -0.16072,0.10232 -0.0616,0.0249 -0.13527,0.0377 -0.22066,0.0377 -0.13502,0 -0.25383,-0.0365 -0.35708,-0.10904 -0.10325,-0.0725 -0.18375,-0.1697 -0.24133,-0.29197 -0.0576,-0.12434 -0.0863,-0.26419 -0.0863,-0.41961 0,-0.16165 0.0338,-0.30613 0.10129,-0.43253 0.0675,-0.12849 0.16266,-0.22977 0.28577,-0.30438 0.12509,-0.0746 0.27202,-0.11214 0.4408,-0.11214 z m 2.71353,0 c 0.17076,0 0.31546,0.0375 0.4346,0.11214 0.12111,0.0725 0.21344,0.17279 0.27698,0.30127 0.0655,0.12642 0.0982,0.26832 0.0982,0.42582 v 0.79272 h -0.45269 v -0.25477 h -0.0119 c -0.0278,0.056 -0.0633,0.10689 -0.10698,0.15245 -0.0437,0.0435 -0.0977,0.0774 -0.16123,0.10232 -0.0615,0.0249 -0.13476,0.0377 -0.22014,0.0377 -0.13502,0 -0.25435,-0.0365 -0.3576,-0.10904 -0.10325,-0.0725 -0.18323,-0.1697 -0.24081,-0.29197 -0.0576,-0.12434 -0.0868,-0.26419 -0.0868,-0.41961 0,-0.16165 0.0338,-0.30613 0.10129,-0.43253 0.0675,-0.12849 0.16318,-0.22977 0.28629,-0.30438 0.12509,-0.0746 0.27202,-0.11214 0.4408,-0.11214 z m -4.62246,0.0377 h 0.73536 v 0.38499 h -0.66405 c -0.0278,0 -0.0514,0.01 -0.0713,0.0284 -0.0179,0.0187 -0.0269,0.0413 -0.0269,0.0682 0,0.029 0.009,0.0537 0.0269,0.0744 0.0199,0.0187 0.0435,0.0279 0.0713,0.0279 h 0.262 c 0.11119,0 0.20687,0.018 0.28629,0.0532 0.0814,0.0332 0.1439,0.0866 0.18759,0.16123 0.0457,0.0746 0.0682,0.17127 0.0682,0.28939 0,0.0933 -0.0225,0.17808 -0.0682,0.25476 -0.0437,0.0767 -0.10335,0.13786 -0.1788,0.18345 -0.0735,0.0456 -0.1568,0.0682 -0.25012,0.0682 h -0.8015 v -0.38189 h 0.73587 c 0.0199,0 0.0379,-0.005 0.0538,-0.0129 0.0159,-0.0104 0.0288,-0.0237 0.0387,-0.0403 0.01,-0.0165 0.0145,-0.0341 0.0145,-0.0527 0,-0.0207 -0.005,-0.0392 -0.0145,-0.0558 -0.01,-0.0165 -0.0229,-0.0294 -0.0387,-0.0377 -0.0159,-0.0104 -0.0339,-0.0155 -0.0538,-0.0155 h -0.2682 c -0.0993,0 -0.18938,-0.0164 -0.27078,-0.0496 -0.0794,-0.0352 -0.14304,-0.0892 -0.19069,-0.16174 -0.0457,-0.0746 -0.0687,-0.17075 -0.0687,-0.28888 0,-0.0912 0.0208,-0.17395 0.0625,-0.24856 0.0437,-0.0746 0.10223,-0.13476 0.1757,-0.18035 0.0754,-0.0456 0.15818,-0.0682 0.24753,-0.0682 z m 1.90324,0.38499 c -0.0715,0 -0.13449,0.019 -0.1881,0.0563 -0.0536,0.0352 -0.0942,0.0841 -0.12196,0.14625 -0.0278,0.0622 -0.0419,0.13159 -0.0419,0.20825 0,0.0788 0.0141,0.15022 0.0419,0.21446 0.0278,0.0642 0.0684,0.11461 0.12196,0.15193 0.0536,0.0352 0.11662,0.0532 0.1881,0.0532 0.0695,0 0.12976,-0.018 0.18139,-0.0532 0.0536,-0.0373 0.0942,-0.0877 0.12195,-0.15193 0.0278,-0.0642 0.0419,-0.13569 0.0419,-0.21446 0,-0.0767 -0.0141,-0.14608 -0.0419,-0.20825 -0.0278,-0.0622 -0.0683,-0.11103 -0.12195,-0.14625 -0.0516,-0.0373 -0.11189,-0.0563 -0.18139,-0.0563 z m 2.71302,0 c -0.0715,0 -0.13398,0.019 -0.18759,0.0563 -0.0536,0.0352 -0.0942,0.0835 -0.12196,0.14573 -0.0278,0.0622 -0.0418,0.13211 -0.0418,0.20877 0,0.0788 0.014,0.15022 0.0418,0.21446 0.0278,0.0642 0.0684,0.11461 0.12196,0.15193 0.0536,0.0352 0.1161,0.0532 0.18759,0.0532 0.0695,0 0.13027,-0.018 0.1819,-0.0532 0.0536,-0.0373 0.0942,-0.0877 0.12195,-0.15193 0.0278,-0.0642 0.0419,-0.13569 0.0419,-0.21446 0,-0.0767 -0.0141,-0.1466 -0.0419,-0.20877 -0.0278,-0.0622 -0.0683,-0.11051 -0.12195,-0.14573 -0.0516,-0.0373 -0.11241,-0.0563 -0.1819,-0.0563 z" />
  </g>
</svg>
